# xmcd CD database file
#
# Track frame offsets:
#	150
#	16152
#	33693
#	52695
#	78391
#	100073
#	122192
#	147088
#	167185
#	186003
#	209184
#	227181
#
# Disc length: 3258 seconds
#
# Revision: 0
# Processed by: cddbd v1.4PL0 Copyright (c) Steve Scherf et al.
# Submitted via: CDex 1.51
#
DISCID=a10cb80c
DTITLE=Various Artist - sexykinkyjazzysmooth-tribute 2 prince
DYEAR=2001
DGENRE=Jazz
TTITLE0=Delirious - Jim McMillen
TTITLE1=Purple Rain - Solomon Burke Jr.
TTITLE2=Adore - Gringo Lloyd
TTITLE3=Girls and Boys - Jim McMillen
TTITLE4=7 - Solomon Burke Jr.
TTITLE5=When Doves Cry - Gringo Lloyd
TTITLE6=Rock Hard In A Funky Place - Gringo Lloyd
TTITLE7=Letitgo - Solomon Burke Jr.
TTITLE8=Pop Life - Gringo Lloyd
TTITLE9=Hot Thing - Jim McMillen
TTITLE10=Little Red Corvette - Gringo Lloyd
TTITLE11=Anotherloverholenyohead - Solomon Burke Jr.
EXTD=YEAR: 2001
EXTT0=
EXTT1=
EXTT2=
EXTT3=
EXTT4=
EXTT5=
EXTT6=
EXTT7=
EXTT8=
EXTT9=
EXTT10=
EXTT11=
PLAYORDER=
